<svg _ngcontent-serverApp-c54="" xmlns="http://www.w3.org/2000/svg" width="208" height="56" fill="none" viewBox="-0.0005587791092693806 -0.00041382675408385694 177.00054931640625 49.000823974609375"><path _ngcontent-serverApp-c54="" fill="#191919" fill-rule="evenodd" d="M172.249 28.467c0-3.332-1.413-4.998-4.194-5.043V19.91c2.804 0 5.005.776 6.581 2.305 1.576 1.528 2.364 3.673 2.364 6.411 0 2.601-.811 4.655-2.433 6.138-1.599 1.483-3.755 2.213-6.512 2.236v-3.514h.046c2.758 0 4.148-1.665 4.148-5.02zm-4.194-5.043h-.093c-2.735 0-4.102 1.666-4.102 5.043 0 3.33 1.414 4.997 4.195 5.02V37h-.163c-2.734 0-4.866-.753-6.442-2.282-1.553-1.528-2.341-3.628-2.341-6.297 0-2.601.811-4.678 2.41-6.206 1.623-1.53 3.778-2.305 6.513-2.305h.023v3.514zm-47.67 13.348v-3.56h3.94v-3.011h-3.94v-3.537h3.94v-.274c0-1.027-.255-1.711-.765-2.1-.51-.387-1.437-.592-2.781-.592h-.394v-3.56h.394c1.808 0 3.013.069 3.615.183 1.252.228 2.271.776 3.059 1.665 1.02 1.164 1.53 2.967 1.53 5.408v9.378h-8.598zm0-18.482v-3.332l.672-.958h4.264l-4.542 4.29h-.394zm35.295 18.482h-4.659V20.138h4.659v16.634zm0-18.345h-4.659V14h4.659v4.427zm-8.274 18.345h-6.349c-1.692 0-3.036-.16-4.033-.502-1.019-.342-1.9-.935-2.665-1.78-1.46-1.597-2.178-3.673-2.178-6.206 0-2.875.857-5.043 2.595-6.503 1.298-1.095 3.384-1.643 6.281-1.643h6.349v3.56h-5.538c-1.738 0-3.013.365-3.778 1.095-.764.73-1.158 1.94-1.158 3.605 0 1.689.417 2.92 1.274 3.674.858.753 2.248 1.14 4.172 1.14h5.028v3.56zM120.385 14.96v3.331h-2.317l2.317-3.331zm0 5.18v3.559h-7.439v-3.56h7.439zm0 6.525V30.2h-2.201c-1.159 0-1.738.524-1.738 1.551 0 .981.834 1.46 2.502 1.46h1.437v3.56h-1.205c-1.553 0-2.503 0-2.873-.023-1.136-.114-2.017-.41-2.642-.867-1.298-.935-1.947-2.282-1.947-4.061 0-1.141.278-2.145.858-3.035.556-.867 1.297-1.46 2.224-1.757.788-.251 2.063-.365 3.824-.365h1.761zM109.47 36.772h-3.383c-2.04 0-3.477-.456-4.311-1.392-.857-.936-1.274-2.556-1.274-4.86v-6.823h-2.944v-3.56h2.944V14h4.658v6.138h4.31v3.56h-4.31v6.023c0 1.438.162 2.373.463 2.83.325.433.974.661 1.993.661h1.854v3.56zm-13.626-5.225a5.625 5.625 0 0 1-.788 2.898c-.51.912-1.16 1.551-1.947 1.893-.672.297-1.947.434-3.8.434h-9.595v-3.56h8.274c1.066 0 1.784-.022 2.155-.068.764-.091 1.158-.547 1.158-1.369 0-.73-.3-1.21-.903-1.438-.325-.113-.974-.16-1.924-.16H85.67c-1.946 0-3.383-.341-4.287-1.026-1.274-.981-1.9-2.373-1.9-4.175 0-1.735.648-3.08 1.946-4.04.696-.524 1.947-.798 3.754-.798h9.896v3.56h-8.227c-.904 0-1.506.045-1.784.137-.533.205-.788.661-.788 1.323 0 .776.324 1.255.973 1.46.348.114 1.02.183 2.04.183h2.71c1.855 0 3.291.388 4.311 1.21 1.02.82 1.53 2.007 1.53 3.536zm-19.235 5.225h-6.42c-2.479 0-4.402-.183-5.746-.57-1.322-.366-2.457-1.028-3.384-1.986C59.02 32.117 58 29.173 58 25.386c0-4.176 1.298-7.37 3.916-9.538.835-.684 1.715-1.164 2.642-1.437.927-.274 2.156-.411 3.708-.411h8.343v4.061h-6.42c-1.668 0-2.896.114-3.66.343a3.685 3.685 0 0 0-1.947 1.323c-.348.457-.58.913-.696 1.346-.116.434-.208 1.21-.3 2.35h13.023v4.04H63.585c.162 1.939.742 3.308 1.761 4.084.997.775 2.689 1.163 5.052 1.163h6.211v4.062z" clip-rule="evenodd"></path><path _ngcontent-serverApp-c54="" fill="#FFFFFE" fill-rule="evenodd" d="M1.099 21.843L21.844 1.116a3.745 3.745 0 0 1 5.335 0L47.9 21.843a3.76 3.76 0 0 1 0 5.314L27.179 47.884a3.745 3.745 0 0 1-5.335 0L1.099 27.157a3.76 3.76 0 0 1 0-5.314z" clip-rule="evenodd"></path><path _ngcontent-serverApp-c54="" fill="#00B8E0" fill-rule="evenodd" d="M25 48a3.13 3.13 0 0 1-2.093-.825L1.86 26.985A2.781 2.781 0 0 1 1 25l9.07.49.581 9.472.558-9.405 12.465.713.698 11.255-9.023.513 9.07.512L25 48z" clip-rule="evenodd"></path><path _ngcontent-serverApp-c54="" fill="#30A7AF" fill-rule="evenodd" d="M35.442 39.152l-8.349 8.023A3.088 3.088 0 0 1 25 48l.582-9.383 9.86.535zM49 25a2.69 2.69 0 0 1-.86 1.984l-7.582 7.287-.535-8.78L49 25zM38.047 36.678l-.093.09-12.303.69.698-11.188 12.372-.69-.674 11.098z" clip-rule="evenodd"></path><path _ngcontent-serverApp-c54="" fill="#6CC0B1" fill-rule="evenodd" d="M25 1c.767 0 1.512.302 2.093.86L48.14 22.93c.582.558.861 1.326.861 2.07l-9.046-.512-.582-9.883-.581 9.814-12.442-.745-.698-11.744 9.024-.534-9.093-.535L25 1z" clip-rule="evenodd"></path><path _ngcontent-serverApp-c54="" fill="#B0D9C8" fill-rule="evenodd" d="M1.86 22.93l7.605-7.604.535 9.162L1 25c0-.744.302-1.512.86-2.07zm10.117-10.116l.07-.093 12.302-.72-.675 11.673-12.395.721.698-11.58zm2.581-2.582l8.35-8.371A3.059 3.059 0 0 1 25 1l-.558 9.79-9.884-.557z" clip-rule="evenodd"></path><path _ngcontent-serverApp-c54="" fill="#FFFFFE" fill-rule="evenodd" d="M25 1l1.68 21.855L49 24.5l-22.32 1.645L25 48l-1.68-21.855L1 24.5l22.32-1.645L25 1z" clip-rule="evenodd"></path></svg>